<svg xmlns="http://www.w3.org/2000/svg" xmlns:xlink="http://www.w3.org/1999/xlink" version="1.1" class="" pageAlignment="none" x="0px" y="0px" width="400px" height="400px" viewBox="0 0 400 400" enable-background="new 0 0 400 400" xml:space="preserve"><defs/>
<g type="LAYER" name="workspace" id="workspace" locked="true"/>
<g id="Layer 01" type="LAYER" name="Layer 01">
    <path transform="matrix(-0.5 -0.75 0.75 -0.672 275 250)" width="90" height="83.8999" stroke-width="0" fill="#FF5516" d="M-16,0 L90,-18 L84,-17 L7.1,68.9 Z "/>
    <path transform="matrix(-0.5 0.863 -0.871 -0.5 376.6738 217.9575)" width="183.4274" height="60" stroke-width="0" fill="#FF6526" d="M-21.6863,0.1757 L161.7410,1.6155 L127.3532,60.4929 L9.6174,55.8991 L-21.6863,0.1757 Z "/>
    <path transform="matrix(1 0 0 1 129.5406 316.86)" width="189.1316" height="61.2595" stroke-width="0" fill="#FF7536" d="M12,-18.331 L130.7399,-19.6741 L165,40 L-23.5,40.5 Z"/>
    <path transform="matrix(0.5 0.8677 -0.867 0.5 59.2304 196.8969)" width="185" height="64.0324" stroke-width="0" fill="#FF8546" d="M15.1632,-23.5953 L129.9412,-22.3202 L161.9574,39.3123 L-23,39 Z "/>
    <path transform="matrix(0.5 -0.863 0.864 0.5 24.6106 176.774)" width="185.6173" height="65.1972" stroke-width="0" fill="#FF9556" d="M-22.6640,0.7614 L163.3,2.2 L125.8,66.5 L12.8678,65.3  Z "/>
    <path transform="matrix(-1 0 0 -1 271.7482 76.5312)" width="187.0454" height="64.5307" stroke-width="0" fill="#FFA566" d="M5,-24.5 L127,-25 L163.8,39.5 L-33,39.5 Z "/>
</g>
</svg>
