<?xml version="1.0" encoding="iso-8859-1"?>
<!-- Generator: Adobe Illustrator 18.0.0, SVG Export Plug-In . SVG Version: 6.00 Build 0)  -->
<!DOCTYPE svg PUBLIC "-//W3C//DTD SVG 1.1//EN" "http://www.w3.org/Graphics/SVG/1.1/DTD/svg11.dtd">
<svg version="1.1" xmlns="http://www.w3.org/2000/svg" xmlns:xlink="http://www.w3.org/1999/xlink" x="0px" y="0px"
	 viewBox="0 0 230.629 230.629" style="enable-background:new 0 0 230.629 230.629;" xml:space="preserve">
<path fill="#666" d="M230.629,59.325H0v150.989h230.629V59.325z M115.314,183.373c-26.814,0-48.553-21.738-48.553-48.554
	c0-26.814,21.738-48.553,48.553-48.553s48.555,21.739,48.555,48.553C163.869,161.635,142.129,183.373,115.314,183.373z
	 M88.041,20.315h54.547l17.943,28.93H70.1L88.041,20.315z M144.447,134.819c0,16.089-13.043,29.133-29.133,29.133
	c-16.088,0-29.131-13.044-29.131-29.133c0-16.089,13.043-29.132,29.131-29.132C131.404,105.688,144.447,118.73,144.447,134.819z"/>
</svg>
